<?xml version="1.0" encoding="UTF-8" standalone="no"?>
<!-- Created with Inkscape (http://www.inkscape.org/) -->

<svg
   width="64.583015mm"
   height="14.080767mm"
   viewBox="0 0 64.583015 14.080767"
   version="1.1"
   id="svg1"
   sodipodi:docname="logo.svg"
   inkscape:export-filename="logo-mail.png"
   inkscape:export-xdpi="96"
   inkscape:export-ydpi="96"
   inkscape:version="1.4.3 (0d15f75, 2025-12-25)"
   xmlns:inkscape="http://www.inkscape.org/namespaces/inkscape"
   xmlns:sodipodi="http://sodipodi.sourceforge.net/DTD/sodipodi-0.dtd"
   xmlns="http://www.w3.org/2000/svg"
   xmlns:svg="http://www.w3.org/2000/svg">
  <sodipodi:namedview
     id="namedview1"
     pagecolor="#ffffff"
     bordercolor="#000000"
     borderopacity="0.25"
     inkscape:showpageshadow="2"
     inkscape:pageopacity="0.0"
     inkscape:pagecheckerboard="0"
     inkscape:deskcolor="#d1d1d1"
     inkscape:document-units="mm"
     inkscape:zoom="9.2300777"
     inkscape:cx="122.10081"
     inkscape:cy="26.597826"
     inkscape:window-width="2400"
     inkscape:window-height="1261"
     inkscape:window-x="-9"
     inkscape:window-y="-9"
     inkscape:window-maximized="1"
     inkscape:current-layer="svg1" />
  <defs
     id="defs1" />
  <g
     id="layer1"
     transform="translate(-42.849066,-49.635833)">
    <g
       id="text1"
       style="font-size:16.9333px;stroke-width:0.265"
       aria-label="Créati'Clo">
      <path
         style="font-family:Parisienne;-inkscape-font-specification:Parisienne;fill:#262626"
         d="m 47.809994,56.382696 q 0.0083,0.01654 0.124023,0.115755 0.115755,0.09095 0.32246,0.206705 0.214974,0.115755 0.520897,0.206705 0.305924,0.09095 0.69453,0.09095 0.653189,0 1.231964,-0.248047 0.578775,-0.248046 1.066599,-0.653188 0.496093,-0.405143 0.884699,-0.92604 0.396874,-0.520898 0.669726,-1.0666 0.272851,-0.545702 0.421678,-1.074867 0.148828,-0.529166 0.148828,-0.950845 0,-0.504361 -0.148828,-0.87643 -0.148827,-0.37207 -0.405142,-0.611848 -0.248046,-0.239778 -0.595311,-0.355533 -0.338997,-0.115755 -0.735871,-0.115755 -0.785481,0 -1.562693,0.281119 -0.768943,0.272851 -1.496546,0.752407 -0.727603,0.479557 -1.397328,1.132745 -0.669725,0.644921 -1.2485,1.38906 -0.578775,0.744139 -1.050063,1.554424 -0.471288,0.802017 -0.810285,1.595765 -0.330729,0.793749 -0.512629,1.546156 -0.181901,0.744139 -0.181901,1.372523 0,0.727603 0.206705,1.372524 0.214974,0.64492 0.636653,1.124477 0.421679,0.479556 1.050063,0.752407 0.636652,0.281119 1.48001,0.281119 0.752407,0 1.562692,-0.23151 0.810285,-0.23151 1.612302,-0.744139 0.810284,-0.512629 1.595765,-1.322914 0.78548,-0.818553 1.504814,-1.984371 l 0.297656,0.23151 q -0.777212,1.265037 -1.62057,2.124931 -0.843357,0.859894 -1.686715,1.380791 -0.843358,0.529166 -1.661911,0.752408 -0.818553,0.23151 -1.554424,0.23151 -1.058331,0 -1.868616,-0.380338 -0.810285,-0.37207 -1.355987,-0.983917 -0.545702,-0.611848 -0.826821,-1.38906 -0.272851,-0.78548 -0.272851,-1.595765 0,-0.69453 0.190169,-1.48001 0.198437,-0.785481 0.55397,-1.595766 0.355533,-0.810284 0.851626,-1.620569 0.504361,-0.810285 1.116209,-1.546156 0.620116,-0.744139 1.33945,-1.380792 0.719335,-0.636652 1.504815,-1.099672 0.793748,-0.471288 1.628838,-0.735871 0.843357,-0.272851 1.71152,-0.272851 0.545702,0 1.041795,0.157096 0.504361,0.148828 0.884698,0.479556 0.380338,0.330729 0.60358,0.851626 0.223242,0.51263 0.223242,1.240232 0,0.487825 -0.148828,1.058332 -0.148828,0.570506 -0.438215,1.149281 -0.28112,0.570507 -0.69453,1.107941 -0.405143,0.537434 -0.92604,0.950844 -0.512629,0.405143 -1.141013,0.653189 -0.620116,0.248046 -1.322915,0.248046 -0.752407,0 -1.314645,-0.248046 -0.553971,-0.256315 -0.950845,-0.628384 l 0.248047,-0.272851 z m 10.806554,2.844265 q -0.124024,0.181901 -0.297656,0.496093 -0.165364,0.305924 -0.388606,0.669725 -0.223242,0.355533 -0.496093,0.727603 -0.264583,0.372069 -0.587043,0.669725 -0.314192,0.297656 -0.686262,0.487825 -0.372069,0.190168 -0.793748,0.190168 -0.23151,0 -0.438215,-0.07441 -0.206706,-0.06615 -0.363802,-0.214974 -0.157096,-0.148828 -0.248046,-0.363801 -0.09095,-0.223242 -0.09095,-0.520898 0,-0.405142 0.157096,-0.843357 0.165364,-0.446484 0.380337,-0.859895 0.214974,-0.41341 0.429948,-0.752407 0.214973,-0.347265 0.314192,-0.55397 0.09922,-0.206706 0.09922,-0.355533 0,-0.107487 -0.07441,-0.190169 -0.06615,-0.08268 -0.173632,-0.157096 -0.09922,-0.08268 -0.214974,-0.165365 -0.107487,-0.09095 -0.1819,-0.214973 -0.206706,0.330728 -0.421679,0.669725 -0.190169,0.289388 -0.413411,0.653189 -0.223242,0.355533 -0.429947,0.702798 l -0.297656,-0.23151 1.769398,-2.769851 0.239778,0.124023 q -0.01654,0.04961 -0.05788,0.157096 -0.03307,0.107487 -0.03307,0.23151 0,0.09095 0.0248,0.181901 0.03307,0.08268 0.124024,0.157096 0.330728,0.297655 0.520897,0.46302 0.190169,0.157096 0.272851,0.256314 0.09095,0.09095 0.107487,0.157096 0.0248,0.05788 0.0248,0.157096 0,0.09922 -0.03307,0.239778 -0.03307,0.14056 -0.115755,0.338997 -0.07441,0.198437 -0.214974,0.471288 -0.132291,0.264583 -0.338997,0.620116 -0.124023,0.214974 -0.248046,0.438216 -0.115755,0.214973 -0.214974,0.438215 -0.09095,0.223242 -0.148827,0.446483 -0.05788,0.223242 -0.05788,0.429947 0,0.157096 0.04134,0.256315 0.04961,0.09095 0.124023,0.14056 0.07441,0.04961 0.157096,0.06614 0.09095,0.01654 0.173633,0.01654 0.272851,0 0.537434,-0.157096 0.272851,-0.165365 0.529165,-0.421679 0.264583,-0.256315 0.504361,-0.578775 0.248047,-0.330729 0.471288,-0.669725 0.223242,-0.338997 0.413411,-0.644921 0.190169,-0.314192 0.338997,-0.545702 z m 0.322459,0.967381 q -0.01654,0.09922 -0.0248,0.198437 -0.0083,0.09922 -0.0083,0.198437 0,0.297656 0.08268,0.570507 0.09095,0.264583 0.256314,0.471288 0.173633,0.198437 0.421679,0.314192 0.256315,0.115755 0.578775,0.115755 1.083136,0 2.091858,-0.735871 1.008722,-0.735871 2.009176,-2.331636 l 0.281119,0.248046 q -0.545702,0.909504 -1.107941,1.537888 -0.562238,0.620116 -1.124477,1.008722 -0.55397,0.388606 -1.091404,0.562239 -0.537434,0.173632 -1.025258,0.173632 -0.355533,0 -0.752408,-0.09922 -0.396874,-0.09922 -0.73587,-0.330728 -0.330729,-0.23151 -0.545703,-0.620116 -0.223241,-0.388606 -0.223241,-0.967381 0,-0.620116 0.214973,-1.190623 0.206706,-0.578775 0.545702,-1.074867 0.338997,-0.496093 0.777212,-0.901236 0.438216,-0.41341 0.884699,-0.702798 0.454752,-0.289387 0.884699,-0.446483 0.429947,-0.165364 0.760675,-0.165364 0.214974,0 0.438216,0.06614 0.223241,0.06615 0.396874,0.206706 0.181901,0.140559 0.289387,0.372069 0.115755,0.23151 0.115755,0.553971 0,0.438215 -0.206705,0.826821 -0.198437,0.380338 -0.537434,0.711066 -0.338996,0.32246 -0.78548,0.587043 -0.446483,0.256315 -0.934308,0.438216 -0.487825,0.1819 -0.983917,0.289387 -0.496093,0.107487 -0.942577,0.115755 z m 0.06615,-0.355533 q 0.55397,-0.05788 1.041795,-0.23151 0.487824,-0.173633 0.892967,-0.421679 0.405142,-0.256315 0.719334,-0.55397 0.322461,-0.297656 0.537434,-0.60358 0.214974,-0.305924 0.330729,-0.587043 0.115755,-0.281119 0.115755,-0.504361 0,-0.223242 -0.124023,-0.355533 -0.115755,-0.132292 -0.28112,-0.132292 -0.363801,0 -0.818553,0.264583 -0.454751,0.256315 -0.909503,0.719335 -0.454752,0.454752 -0.859894,1.074868 -0.396875,0.620115 -0.644921,1.331182 z m 3.166726,-4.836905 h -0.570507 l 1.471742,-1.604033 h 1.033526 z m 8.747769,1.579229 q -0.107487,0.214973 -0.305924,0.562238 -0.190169,0.347265 -0.413411,0.768944 -0.223242,0.413411 -0.454752,0.868163 -0.223241,0.454751 -0.41341,0.892967 -0.181901,0.429947 -0.305924,0.818553 -0.115755,0.380337 -0.115755,0.64492 0,0.264583 0.09922,0.347265 0.107487,0.07441 0.272851,0.07441 0.239779,0 0.487825,-0.14056 0.256315,-0.140559 0.496093,-0.363801 0.248046,-0.223242 0.479556,-0.504361 0.23151,-0.281119 0.429947,-0.562238 0.206706,-0.289388 0.37207,-0.545702 0.165364,-0.264583 0.281119,-0.446484 l 0.297656,0.23151 q -0.14056,0.264583 -0.330729,0.570507 -0.190169,0.305924 -0.421679,0.620116 -0.223241,0.305924 -0.487824,0.595311 -0.264583,0.289387 -0.562239,0.512629 -0.289387,0.223242 -0.611847,0.355533 -0.322461,0.132292 -0.661457,0.132292 -0.496093,0 -0.727603,-0.297656 -0.23151,-0.297656 -0.23151,-0.768944 0,-0.03307 0,-0.140559 0.0083,-0.115755 0.0248,-0.181901 -0.41341,0.520897 -0.793748,0.859894 -0.37207,0.338997 -0.727603,0.537434 -0.347265,0.198437 -0.677993,0.272851 -0.32246,0.08268 -0.620116,0.08268 -0.314192,0 -0.595311,-0.107487 -0.272851,-0.09922 -0.479557,-0.297655 -0.214973,-0.198437 -0.330728,-0.487825 -0.124024,-0.289387 -0.124024,-0.669725 0,-0.471288 0.214974,-1.074868 0.206705,-0.611848 0.744139,-1.314646 0.454752,-0.603579 0.942576,-1.01699 0.496093,-0.41341 0.967381,-0.661457 0.479557,-0.256314 0.909504,-0.363801 0.429947,-0.107487 0.768944,-0.107487 0.760675,0 1.149281,0.256315 0.388606,0.248046 0.471288,0.768943 0.165365,-0.206705 0.347265,-0.41341 0.181901,-0.206706 0.37207,-0.421679 z m -2.538342,3.141921 q 0.107487,-0.173633 0.264583,-0.438215 0.157096,-0.272852 0.330729,-0.553971 0.173632,-0.289387 0.338996,-0.55397 0.165365,-0.264583 0.289388,-0.446484 0,-0.07441 -0.02481,-0.239778 -0.01654,-0.165364 -0.107487,-0.330728 -0.09095,-0.173633 -0.289387,-0.297656 -0.198437,-0.124023 -0.55397,-0.124023 -0.256315,0 -0.578775,0.08268 -0.314192,0.07441 -0.677994,0.264583 -0.355533,0.181901 -0.735871,0.487824 -0.380337,0.305924 -0.760675,0.760676 -0.570507,0.686262 -0.884699,1.380792 -0.305924,0.686261 -0.305924,1.240232 0,0.471288 0.214974,0.727602 0.214973,0.256315 0.611847,0.256315 0.454752,0 0.851626,-0.198437 0.396875,-0.206706 0.744139,-0.529166 0.347265,-0.32246 0.661458,-0.711066 0.314192,-0.396874 0.611847,-0.777212 z m 5.126292,-4.464835 q 0.08268,-0.14056 0.289388,-0.487825 0.214973,-0.347265 0.496093,-0.768944 0.289387,-0.421678 0.620116,-0.843357 0.338996,-0.429947 0.661457,-0.727603 l 0.372069,0.223242 q -0.355533,0.587043 -0.727603,1.2485 -0.372069,0.653189 -0.735871,1.355987 h 2.695438 l -0.165364,0.429947 H 74.26001 q -0.37207,0.744139 -0.702798,1.48001 -0.322461,0.735871 -0.570507,1.405596 -0.248046,0.669725 -0.388606,1.256769 -0.14056,0.578774 -0.14056,1.008722 0,0.537433 0.248047,0.777212 0.248046,0.23151 0.611847,0.23151 0.322461,0 0.661458,-0.190169 0.338996,-0.198437 0.661457,-0.496093 0.330728,-0.297656 0.620116,-0.653189 0.297655,-0.355533 0.520897,-0.669725 0.23151,-0.314192 0.380338,-0.545702 0.148828,-0.239778 0.1819,-0.297656 l 0.305924,0.23151 q -0.289387,0.479556 -0.653189,1.01699 -0.363801,0.537434 -0.810284,1.000454 -0.438216,0.454752 -0.959113,0.760676 -0.520898,0.297655 -1.124477,0.297655 -0.37207,0 -0.653189,-0.132291 -0.272851,-0.132292 -0.46302,-0.363802 -0.190169,-0.239778 -0.281119,-0.562238 -0.09922,-0.32246 -0.09922,-0.702798 0,-0.248047 0.08268,-0.702798 0.07441,-0.454752 0.264582,-1.074868 0.190169,-0.628384 0.504361,-1.405596 0.322461,-0.777212 0.810285,-1.670179 h -1.372523 l 0.165364,-0.429947 z m 6.548427,-0.512629 q 0,0.165364 -0.08268,0.347265 -0.08268,0.173632 -0.214974,0.314192 -0.124023,0.140559 -0.281119,0.23151 -0.157096,0.09095 -0.314192,0.09095 -0.14056,0 -0.214974,-0.09922 -0.07441,-0.107486 -0.07441,-0.256314 0,-0.132292 0.04961,-0.314192 0.04961,-0.181901 0.148828,-0.338997 0.09922,-0.165364 0.239778,-0.281119 0.140559,-0.115755 0.32246,-0.115755 0.173633,0 0.297656,0.132291 0.124023,0.132292 0.124023,0.289388 z m -1.546156,1.835543 q -0.107487,0.214973 -0.305924,0.570507 -0.190169,0.347265 -0.41341,0.768943 -0.223242,0.413411 -0.454752,0.876431 -0.23151,0.454752 -0.421679,0.892967 -0.181901,0.429947 -0.297656,0.810285 -0.115755,0.380338 -0.115755,0.64492 0,0.239779 0.09922,0.330729 0.09922,0.08268 0.281119,0.08268 0.338997,0 0.661457,-0.223242 0.322461,-0.223241 0.636653,-0.578775 0.32246,-0.363801 0.628384,-0.826821 0.305924,-0.46302 0.611848,-0.934308 l 0.297655,0.23151 q -0.239778,0.429947 -0.545702,0.917772 -0.297655,0.487824 -0.669725,0.909503 -0.37207,0.413411 -0.818553,0.686262 -0.446484,0.272851 -0.975649,0.272851 -0.496093,0 -0.760676,-0.297656 -0.264583,-0.297656 -0.264583,-0.768944 0,-0.55397 0.256315,-1.157549 0.256315,-0.60358 0.636652,-1.190623 0.388606,-0.595311 0.83509,-1.141014 0.454752,-0.545702 0.835089,-0.992185 z m 4.332544,-3.33209 h -0.396875 l 1.20716,-3.108848 h 1.033526 z"
         id="path4" />
      <path
         style="font-family:Serif;-inkscape-font-specification:Serif;fill:#ec4899"
         d="m 93.748185,50.611483 0.256314,3.811646 h -0.256314 q -0.512629,-1.71152 -1.463474,-2.463927 -0.950844,-0.752407 -2.282027,-0.752407 -1.116208,0 -2.017444,0.570506 -0.901235,0.562239 -1.422132,1.802471 -0.512629,1.240232 -0.512629,3.084043 0,1.521351 0.487824,2.63756 0.487825,1.116209 1.463474,1.71152 0.983917,0.595311 2.240685,0.595311 1.091405,0 1.926494,-0.46302 0.83509,-0.471288 1.835543,-1.860347 l 0.256315,0.165364 q -0.843358,1.496546 -1.967835,2.191076 -1.124477,0.69453 -2.670632,0.69453 -2.786388,0 -4.316008,-2.067053 -1.141013,-1.537888 -1.141013,-3.621477 0,-1.678448 0.752407,-3.084044 0.752408,-1.405596 2.067054,-2.17454 1.322914,-0.777212 2.885606,-0.777212 1.215427,0 2.397782,0.595312 0.347265,0.1819 0.496092,0.1819 0.223242,0 0.388606,-0.157096 0.214974,-0.223242 0.305924,-0.620116 z m 4.233326,-0.289387 v 10.045878 q 0,0.711067 0.09922,0.942577 0.107486,0.23151 0.32246,0.355533 0.214974,0.115755 0.802017,0.115755 v 0.297655 H 95.49278 v -0.297655 q 0.520897,0 0.711066,-0.107487 0.190169,-0.107487 0.297656,-0.355533 0.107487,-0.248046 0.107487,-0.950845 v -6.879153 q 0,-1.281573 -0.05788,-1.57096 -0.05788,-0.297656 -0.190169,-0.405143 -0.124023,-0.107486 -0.32246,-0.107486 -0.214973,0 -0.545702,0.132291 l -0.14056,-0.289387 2.257223,-0.92604 z m 5.804289,3.960474 q 1.71978,0 2.76158,1.306377 0.8847,1.116209 0.8847,2.563146 0,1.016991 -0.48783,2.058785 -0.48782,1.041795 -1.34772,1.570961 -0.85162,0.529165 -1.90168,0.529165 -1.71152,0 -2.72025,-1.364255 -0.85162,-1.149281 -0.85162,-2.579682 0,-1.041795 0.51263,-2.067053 0.52089,-1.033527 1.36425,-1.521352 0.84336,-0.496092 1.78594,-0.496092 z m -0.25632,0.537434 q -0.43821,0 -0.8847,0.264582 -0.43821,0.256315 -0.71106,0.909504 -0.27285,0.653189 -0.27285,1.678447 0,1.653643 0.65318,2.852533 0.66146,1.198891 1.73633,1.198891 0.80202,0 1.32291,-0.661457 0.5209,-0.661457 0.5209,-2.273758 0,-2.017444 -0.86816,-3.174994 -0.58705,-0.793748 -1.49655,-0.793748 z"
         id="path5" />
    </g>
  </g>
</svg>
